<?xml version="1.0" encoding="utf-8"?><svg xmlns="http://www.w3.org/2000/svg" xmlns:xlink="http://www.w3.org/1999/xlink" width="1313" height="651" preserveAspectRatio="xMidYMid" viewBox="0 0 1313 651" style="z-index:1;margin-right:-1.36752px;display:block;background-color:rgb(241, 242, 243);animation-play-state:paused" ><g transform="translate(656.5,325.5) scale(1,1) translate(-656.5,-325.5)" style="transform:matrix(1, 0, 0, 1, 0, 0);animation-play-state:paused" ><path d="M 0 361 C 219 361 438 459 657 459 C 876 459 1095 361 1314 361 C 1533 361 1752 459 1971 459 C 2190 459 2409 361 2628 361" fill="none" stroke="rgb(0, 81, 162)" stroke-opacity="0" stroke-width="2" transform="matrix(1,0,0,1,0,0)" style="transform:matrix(1, 0, 0, 1, 0, 0);animation-play-state:paused" ></path>
<path d="M 0 361.015 C 219 361.015 438 458.985 657 458.985 C 876 458.985 1095 361.015 1314 361.015 C 1533 361.015 1752 458.985 1971 458.985 C 2190 458.985 2409 361.015 2628 361.015" fill="none" stroke="rgb(0, 81, 162)" stroke-opacity="0" stroke-width="2" transform="matrix(1,0,0,1,-7.002596855163574,0)" style="transform:matrix(1, 0, 0, 1, -7.0026, 0);animation-play-state:paused" ></path>
<path d="M 0 361.061 C 219 361.061 438 458.939 657 458.939 C 876 458.939 1095 361.061 1314 361.061 C 1533 361.061 1752 458.939 1971 458.939 C 2190 458.939 2409 361.061 2628 361.061" fill="none" stroke="rgb(0, 81, 162)" stroke-opacity="0" stroke-width="2" transform="matrix(1,0,0,1,-14.005193710327148,0)" style="transform:matrix(1, 0, 0, 1, -14.0052, 0);animation-play-state:paused" ></path>
<path d="M 0 361.138 C 219 361.138 438 458.862 657 458.862 C 876 458.862 1095 361.138 1314 361.138 C 1533 361.138 1752 458.862 1971 458.862 C 2190 458.862 2409 361.138 2628 361.138" fill="none" stroke="rgb(0, 81, 162)" stroke-opacity="0" stroke-width="2" transform="matrix(1,0,0,1,-21.00800132751465,0)" style="transform:matrix(1, 0, 0, 1, -21.008, 0);animation-play-state:paused" ></path>
<path d="M 0 361.247 C 219 361.247 438 458.753 657 458.753 C 876 458.753 1095 361.247 1314 361.247 C 1533 361.247 1752 458.753 1971 458.753 C 2190 458.753 2409 361.247 2628 361.247" fill="none" stroke="rgb(0, 82, 162)" stroke-opacity="0" stroke-width="2" transform="matrix(1,0,0,1,-28.010595321655273,0)" style="transform:matrix(1, 0, 0, 1, -28.0106, 0);animation-play-state:paused" ></path>
<path d="M 0 361.39 C 219 361.39 438 458.61 657 458.61 C 876 458.61 1095 361.39 1314 361.39 C 1533 361.39 1752 458.61 1971 458.61 C 2190 458.61 2409 361.39 2628 361.39" fill="none" stroke="rgb(1, 82, 163)" stroke-opacity="0" stroke-width="2" transform="matrix(1,0,0,1,-35.01319122314453,0)" style="transform:matrix(1, 0, 0, 1, -35.0132, 0);animation-play-state:paused" ></path>
<path d="M 0 361.567 C 219 361.567 438 458.433 657 458.433 C 876 458.433 1095 361.567 1314 361.567 C 1533 361.567 1752 458.433 1971 458.433 C 2190 458.433 2409 361.567 2628 361.567" fill="none" stroke="rgb(1, 82, 163)" stroke-opacity="0" stroke-width="2" transform="matrix(1,0,0,1,-42.0160026550293,0)" style="transform:matrix(1, 0, 0, 1, -42.016, 0);animation-play-state:paused" ></path>
<path d="M 0 361.78 C 219 361.78 438 458.22 657 458.22 C 876 458.22 1095 361.78 1314 361.78 C 1533 361.78 1752 458.22 1971 458.22 C 2190 458.22 2409 361.78 2628 361.78" fill="none" stroke="rgb(1, 83, 164)" stroke-opacity="0" stroke-width="2" transform="matrix(1,0,0,1,-49.01859664916992,0)" style="transform:matrix(1, 0, 0, 1, -49.0186, 0);animation-play-state:paused" ></path>
<path d="M 0 362.029 C 219 362.029 438 457.971 657 457.971 C 876 457.971 1095 362.029 1314 362.029 C 1533 362.029 1752 457.971 1971 457.971 C 2190 457.971 2409 362.029 2628 362.029" fill="none" stroke="rgb(2, 84, 164)" stroke-opacity="0" stroke-width="2" transform="matrix(1,0,0,1,-56.02119064331055,0)" style="transform:matrix(1, 0, 0, 1, -56.0212, 0);animation-play-state:paused" ></path>
<path d="M 0 362.316 C 219 362.316 438 457.684 657 457.684 C 876 457.684 1095 362.316 1314 362.316 C 1533 362.316 1752 457.684 1971 457.684 C 2190 457.684 2409 362.316 2628 362.316" fill="none" stroke="rgb(3, 84, 165)" stroke-opacity="0" stroke-width="2" transform="matrix(1,0,0,1,-63.02400207519531,0)" style="transform:matrix(1, 0, 0, 1, -63.024, 0);animation-play-state:paused" ></path>
<path d="M 0 362.641 C 219 362.641 438 457.359 657 457.359 C 876 457.359 1095 362.641 1314 362.641 C 1533 362.641 1752 457.359 1971 457.359 C 2190 457.359 2409 362.641 2628 362.641" fill="none" stroke="rgb(3, 85, 165)" stroke-opacity="0" stroke-width="2" transform="matrix(1,0,0,1,-70.02659606933594,0)" style="transform:matrix(1, 0, 0, 1, -70.0266, 0);animation-play-state:paused" ></path>
<path d="M 0 363.006 C 219 363.006 438 456.994 657 456.994 C 876 456.994 1095 363.006 1314 363.006 C 1533 363.006 1752 456.994 1971 456.994 C 2190 456.994 2409 363.006 2628 363.006" fill="none" stroke="rgb(4, 86, 166)" stroke-opacity="0" stroke-width="2" transform="matrix(1,0,0,1,-77.0291976928711,0)" style="transform:matrix(1, 0, 0, 1, -77.0292, 0);animation-play-state:paused" ></path>
<path d="M 0 363.412 C 219 363.412 438 456.588 657 456.588 C 876 456.588 1095 363.412 1314 363.412 C 1533 363.412 1752 456.588 1971 456.588 C 2190 456.588 2409 363.412 2628 363.412" fill="none" stroke="rgb(5, 88, 167)" stroke-opacity="0" stroke-width="2" transform="matrix(1,0,0,1,-84.0320053100586,0)" style="transform:matrix(1, 0, 0, 1, -84.032, 0);animation-play-state:paused" ></path>
<path d="M 0 363.86 C 219 363.86 438 456.14 657 456.14 C 876 456.14 1095 363.86 1314 363.86 C 1533 363.86 1752 456.14 1971 456.14 C 2190 456.14 2409 363.86 2628 363.86" fill="none" stroke="rgb(6, 89, 168)" stroke-opacity="0" stroke-width="2" transform="matrix(1,0,0,1,-91.03459167480469,0)" style="transform:matrix(1, 0, 0, 1, -91.0346, 0);animation-play-state:paused" ></path>
<path d="M 0 364.352 C 219 364.352 438 455.648 657 455.648 C 876 455.648 1095 364.352 1314 364.352 C 1533 364.352 1752 455.648 1971 455.648 C 2190 455.648 2409 364.352 2628 364.352" fill="none" stroke="rgb(7, 91, 169)" stroke-opacity="0" stroke-width="2" transform="matrix(1,0,0,1,-98.03719329833984,0)" style="transform:matrix(1, 0, 0, 1, -98.0372, 0);animation-play-state:paused" ></path>
<path d="M 0 364.888 C 219 364.888 438 455.112 657 455.112 C 876 455.112 1095 364.888 1314 364.888 C 1533 364.888 1752 455.112 1971 455.112 C 2190 455.112 2409 364.888 2628 364.888" fill="none" stroke="rgb(8, 92, 171)" stroke-opacity="0" stroke-width="2" transform="matrix(1,0,0,1,-105.04000091552734,0)" style="transform:matrix(1, 0, 0, 1, -105.04, 0);animation-play-state:paused" ></path>
<path d="M 0 365.471 C 219 365.471 438 454.529 657 454.529 C 876 454.529 1095 365.471 1314 365.471 C 1533 365.471 1752 454.529 1971 454.529 C 2190 454.529 2409 365.471 2628 365.471" fill="none" stroke="rgb(10, 94, 172)" stroke-opacity="0" stroke-width="2" transform="matrix(1,0,0,1,-112.04259490966797,0)" style="transform:matrix(1, 0, 0, 1, -112.043, 0);animation-play-state:paused" ></path>
<path d="M 0 366.1 C 219 366.1 438 453.9 657 453.9 C 876 453.9 1095 366.1 1314 366.1 C 1533 366.1 1752 453.9 1971 453.9 C 2190 453.9 2409 366.1 2628 366.1" fill="none" stroke="rgb(11, 96, 173)" stroke-opacity="0" stroke-width="2" transform="matrix(1,0,0,1,-119.04519653320312,0)" style="transform:matrix(1, 0, 0, 1, -119.045, 0);animation-play-state:paused" ></path>
<path d="M 0 366.779 C 219 366.779 438 453.221 657 453.221 C 876 453.221 1095 366.779 1314 366.779 C 1533 366.779 1752 453.221 1971 453.221 C 2190 453.221 2409 366.779 2628 366.779" fill="none" stroke="rgb(12, 98, 175)" stroke-opacity="0" stroke-width="2" transform="matrix(1,0,0,1,-126.04800415039062,0)" style="transform:matrix(1, 0, 0, 1, -126.048, 0);animation-play-state:paused" ></path>
<path d="M 0 367.507 C 219 367.507 438 452.493 657 452.493 C 876 452.493 1095 367.507 1314 367.507 C 1533 367.507 1752 452.493 1971 452.493 C 2190 452.493 2409 367.507 2628 367.507" fill="none" stroke="rgb(14, 99, 176)" stroke-opacity="0" stroke-width="2" transform="matrix(1,0,0,1,-133.05059814453125,0)" style="transform:matrix(1, 0, 0, 1, -133.051, 0);animation-play-state:paused" ></path>
<path d="M 0 368.287 C 219 368.287 438 451.713 657 451.713 C 876 451.713 1095 368.287 1314 368.287 C 1533 368.287 1752 451.713 1971 451.713 C 2190 451.713 2409 368.287 2628 368.287" fill="none" stroke="rgb(15, 101, 178)" stroke-opacity="0" stroke-width="2" transform="matrix(1,0,0,1,-140.05319213867188,0)" style="transform:matrix(1, 0, 0, 1, -140.053, 0);animation-play-state:paused" ></path>
<path d="M 0 369.12 C 219 369.12 438 450.88 657 450.88 C 876 450.88 1095 369.12 1314 369.12 C 1533 369.12 1752 450.88 1971 450.88 C 2190 450.88 2409 369.12 2628 369.12" fill="none" stroke="rgb(17, 103, 179)" stroke-opacity="0" stroke-width="2" transform="matrix(1,0,0,1,-147.05599975585938,0)" style="transform:matrix(1, 0, 0, 1, -147.056, 0);animation-play-state:paused" ></path>
<path d="M 0 370.006 C 219 370.006 438 449.994 657 449.994 C 876 449.994 1095 370.006 1314 370.006 C 1533 370.006 1752 449.994 1971 449.994 C 2190 449.994 2409 370.006 2628 370.006" fill="none" stroke="rgb(18, 105, 181)" stroke-opacity="0" stroke-width="2" transform="matrix(1,0,0,1,-154.05859375,0)" style="transform:matrix(1, 0, 0, 1, -154.059, 0);animation-play-state:paused" ></path>
<path d="M 0 370.948 C 219 370.948 438 449.052 657 449.052 C 876 449.052 1095 370.948 1314 370.948 C 1533 370.948 1752 449.052 1971 449.052 C 2190 449.052 2409 370.948 2628 370.948" fill="none" stroke="rgb(19, 107, 182)" stroke-opacity="0" stroke-width="2" transform="matrix(1,0,0,1,-161.06118774414062,0)" style="transform:matrix(1, 0, 0, 1, -161.061, 0);animation-play-state:paused" ></path>
<path d="M 0 371.946 C 219 371.946 438 448.054 657 448.054 C 876 448.054 1095 371.946 1314 371.946 C 1533 371.946 1752 448.054 1971 448.054 C 2190 448.054 2409 371.946 2628 371.946" fill="none" stroke="rgb(20, 108, 183)" stroke-opacity="0" stroke-width="2" transform="matrix(1,0,0,1,-168.0640106201172,0)" style="transform:matrix(1, 0, 0, 1, -168.064, 0);animation-play-state:paused" ></path>
<path d="M 0 373.002 C 219 373.002 438 446.998 657 446.998 C 876 446.998 1095 373.002 1314 373.002 C 1533 373.002 1752 446.998 1971 446.998 C 2190 446.998 2409 373.002 2628 373.002" fill="none" stroke="rgb(22, 110, 184)" stroke-opacity="0" stroke-width="2" transform="matrix(1,0,0,1,-175.0666046142578,0)" style="transform:matrix(1, 0, 0, 1, -175.067, 0);animation-play-state:paused" ></path>
<path d="M 0 374.116 C 219 374.116 438 445.884 657 445.884 C 876 445.884 1095 374.116 1314 374.116 C 1533 374.116 1752 445.884 1971 445.884 C 2190 445.884 2409 374.116 2628 374.116" fill="none" stroke="rgb(22, 111, 185)" stroke-opacity="0" stroke-width="2" transform="matrix(1,0,0,1,-182.06918334960938,0)" style="transform:matrix(1, 0, 0, 1, -182.069, 0);animation-play-state:paused" ></path>
<path d="M 0 375.29 C 219 375.29 438 444.71 657 444.71 C 876 444.71 1095 375.29 1314 375.29 C 1533 375.29 1752 444.71 1971 444.71 C 2190 444.71 2409 375.29 2628 375.29" fill="none" stroke="rgb(23, 112, 186)" stroke-opacity="0" stroke-width="2" transform="matrix(1,0,0,1,-189.07199096679688,0)" style="transform:matrix(1, 0, 0, 1, -189.072, 0);animation-play-state:paused" ></path>
<path d="M 0 376.524 C 219 376.524 438 443.476 657 443.476 C 876 443.476 1095 376.524 1314 376.524 C 1533 376.524 1752 443.476 1971 443.476 C 2190 443.476 2409 376.524 2628 376.524" fill="none" stroke="rgb(24, 113, 187)" stroke-opacity="0" stroke-width="2" transform="matrix(1,0,0,1,-196.07460021972656,0)" style="transform:matrix(1, 0, 0, 1, -196.075, 0);animation-play-state:paused" ></path>
<path d="M 0 377.819 C 219 377.819 438 442.181 657 442.181 C 876 442.181 1095 377.819 1314 377.819 C 1533 377.819 1752 442.181 1971 442.181 C 2190 442.181 2409 377.819 2628 377.819" fill="none" stroke="rgb(25, 114, 188)" stroke-opacity="0" stroke-width="2" transform="matrix(1,0,0,1,-203.0771942138672,0)" style="transform:matrix(1, 0, 0, 1, -203.077, 0);animation-play-state:paused" ></path>
<path d="M 0 379.176 C 219 379.176 438 440.824 657 440.824 C 876 440.824 1095 379.176 1314 379.176 C 1533 379.176 1752 440.824 1971 440.824 C 2190 440.824 2409 379.176 2628 379.176" fill="none" stroke="rgb(25, 115, 188)" stroke-opacity="0" stroke-width="2" transform="matrix(1,0,0,1,-210.0800018310547,0)" style="transform:matrix(1, 0, 0, 1, -210.08, 0);animation-play-state:paused" ></path>
<path d="M 0 380.594 C 219 380.594 438 439.406 657 439.406 C 876 439.406 1095 380.594 1314 380.594 C 1533 380.594 1752 439.406 1971 439.406 C 2190 439.406 2409 380.594 2628 380.594" fill="none" stroke="rgb(26, 115, 189)" stroke-opacity="0" stroke-width="2" transform="matrix(1,0,0,1,-217.08261108398438,0)" style="transform:matrix(1, 0, 0, 1, -217.083, 0);animation-play-state:paused" ></path>
<path d="M 0 382.073 C 219 382.073 438 437.927 657 437.927 C 876 437.927 1095 382.073 1314 382.073 C 1533 382.073 1752 437.927 1971 437.927 C 2190 437.927 2409 382.073 2628 382.073" fill="none" stroke="rgb(26, 116, 189)" stroke-opacity="0" stroke-width="2" transform="matrix(1,0,0,1,-224.08518981933594,0)" style="transform:matrix(1, 0, 0, 1, -224.085, 0);animation-play-state:paused" ></path>
<path d="M 0 383.614 C 219 383.614 438 436.386 657 436.386 C 876 436.386 1095 383.614 1314 383.614 C 1533 383.614 1752 436.386 1971 436.386 C 2190 436.386 2409 383.614 2628 383.614" fill="none" stroke="rgb(26, 116, 189)" stroke-opacity="0" stroke-width="2" transform="matrix(1,0,0,1,-231.08799743652344,0)" style="transform:matrix(1, 0, 0, 1, -231.088, 0);animation-play-state:paused" ></path>
<path d="M 0 385.215 C 219 385.215 438 434.785 657 434.785 C 876 434.785 1095 385.215 1314 385.215 C 1533 385.215 1752 434.785 1971 434.785 C 2190 434.785 2409 385.215 2628 385.215" fill="none" stroke="rgb(27, 117, 190)" stroke-opacity="0" stroke-width="2" transform="matrix(1,0,0,1,-238.09059143066406,0)" style="transform:matrix(1, 0, 0, 1, -238.091, 0);animation-play-state:paused" ></path>
<path d="M 0 386.874 C 219 386.874 438 433.126 657 433.126 C 876 433.126 1095 386.874 1314 386.874 C 1533 386.874 1752 433.126 1971 433.126 C 2190 433.126 2409 386.874 2628 386.874" fill="none" stroke="rgb(27, 117, 190)" stroke-opacity="0" stroke-width="2" transform="matrix(1,0,0,1,-245.09320068359375,0)" style="transform:matrix(1, 0, 0, 1, -245.093, 0);animation-play-state:paused" ></path>
<path d="M 0 388.591 C 219 388.591 438 431.409 657 431.409 C 876 431.409 1095 388.591 1314 388.591 C 1533 388.591 1752 431.409 1971 431.409 C 2190 431.409 2409 388.591 2628 388.591" fill="none" stroke="rgb(27, 117, 190)" stroke-opacity="0" stroke-width="2" transform="matrix(1,0,0,1,-252.09600830078125,0)" style="transform:matrix(1, 0, 0, 1, -252.096, 0);animation-play-state:paused" ></path>
<path d="M 0 390.363 C 219 390.363 438 429.637 657 429.637 C 876 429.637 1095 390.363 1314 390.363 C 1533 390.363 1752 429.637 1971 429.637 C 2190 429.637 2409 390.363 2628 390.363" fill="none" stroke="rgb(27, 117, 190)" stroke-opacity="0" stroke-width="2" transform="matrix(1,0,0,1,-259.0986022949219,0)" style="transform:matrix(1, 0, 0, 1, -259.099, 0);animation-play-state:paused" ></path>
<path d="M 0 392.187 C 219 392.187 438 427.813 657 427.813 C 876 427.813 1095 392.187 1314 392.187 C 1533 392.187 1752 427.813 1971 427.813 C 2190 427.813 2409 392.187 2628 392.187" fill="none" stroke="rgb(27, 117, 190)" stroke-opacity="0" stroke-width="2" transform="matrix(1,0,0,1,-266.1011962890625,0)" style="transform:matrix(1, 0, 0, 1, -266.101, 0);animation-play-state:paused" ></path>
<path d="M 0 394.061 C 219 394.061 438 425.939 657 425.939 C 876 425.939 1095 394.061 1314 394.061 C 1533 394.061 1752 425.939 1971 425.939 C 2190 425.939 2409 394.061 2628 394.061" fill="none" stroke="rgb(27, 117, 190)" stroke-opacity="0" stroke-width="2" transform="matrix(1,0,0,1,-273.10400390625,0)" style="transform:matrix(1, 0, 0, 1, -273.104, 0);animation-play-state:paused" ></path>
<path d="M 0 395.98 C 219 395.98 438 424.02 657 424.02 C 876 424.02 1095 395.98 1314 395.98 C 1533 395.98 1752 424.02 1971 424.02 C 2190 424.02 2409 395.98 2628 395.98" fill="none" stroke="rgb(27, 117, 190)" stroke-opacity="0" stroke-width="2" transform="matrix(1,0,0,1,-280.1065979003906,0)" style="transform:matrix(1, 0, 0, 1, -280.107, 0);animation-play-state:paused" ></path>
<path d="M 0 397.94 C 219 397.94 438 422.06 657 422.06 C 876 422.06 1095 397.94 1314 397.94 C 1533 397.94 1752 422.06 1971 422.06 C 2190 422.06 2409 397.94 2628 397.94" fill="none" stroke="rgb(27, 117, 190)" stroke-opacity="0" stroke-width="2" transform="matrix(1,0,0,1,-287.10919189453125,0)" style="transform:matrix(1, 0, 0, 1, -287.109, 0);animation-play-state:paused" ></path>
<path d="M 0 399.936 C 219 399.936 438 420.064 657 420.064 C 876 420.064 1095 399.936 1314 399.936 C 1533 399.936 1752 420.064 1971 420.064 C 2190 420.064 2409 399.936 2628 399.936" fill="none" stroke="rgb(28, 118, 191)" stroke-opacity="0" stroke-width="2" transform="matrix(1,0,0,1,-294.11199951171875,0)" style="transform:matrix(1, 0, 0, 1, -294.112, 0);animation-play-state:paused" ></path>
<path d="M 0 401.963 C 219 401.963 438 418.037 657 418.037 C 876 418.037 1095 401.963 1314 401.963 C 1533 401.963 1752 418.037 1971 418.037 C 2190 418.037 2409 401.963 2628 401.963" fill="none" stroke="rgb(28, 118, 191)" stroke-opacity="0" stroke-width="2" transform="matrix(1,0,0,1,-301.1145935058594,0)" style="transform:matrix(1, 0, 0, 1, -301.115, 0);animation-play-state:paused" ></path>
<path d="M 0 404.016 C 219 404.016 438 415.984 657 415.984 C 876 415.984 1095 404.016 1314 404.016 C 1533 404.016 1752 415.984 1971 415.984 C 2190 415.984 2409 404.016 2628 404.016" fill="none" stroke="rgb(29, 118, 192)" stroke-opacity="0" stroke-width="2" transform="matrix(1,0,0,1,-308.1171875,0)" style="transform:matrix(1, 0, 0, 1, -308.117, 0);animation-play-state:paused" ></path>
<path d="M 0 406.087 C 219 406.087 438 413.913 657 413.913 C 876 413.913 1095 406.087 1314 406.087 C 1533 406.087 1752 413.913 1971 413.913 C 2190 413.913 2409 406.087 2628 406.087" fill="none" stroke="rgb(29, 119, 192)" stroke-opacity="0" stroke-width="2" transform="matrix(1,0,0,1,-315.1199951171875,0)" style="transform:matrix(1, 0, 0, 1, -315.12, 0);animation-play-state:paused" ></path>
<path d="M 0 408.171 C 219 408.171 438 411.829 657 411.829 C 876 411.829 1095 408.171 1314 408.171 C 1533 408.171 1752 411.829 1971 411.829 C 2190 411.829 2409 408.171 2628 408.171" fill="none" stroke="rgb(30, 119, 193)" stroke-opacity="0.022727272727272728" stroke-width="2" transform="matrix(1,0,0,1,-322.1225891113281,0)" style="transform:matrix(1, 0, 0, 1, -322.123, 0);animation-play-state:paused" ></path>
<path d="M 0 410.261 C 219 410.261 438 409.739 657 409.739 C 876 409.739 1095 410.261 1314 410.261 C 1533 410.261 1752 409.739 1971 409.739 C 2190 409.739 2409 410.261 2628 410.261" fill="none" stroke="rgb(31, 120, 194)" stroke-opacity="0.045454545454545456" stroke-width="2" transform="matrix(1,0,0,1,-329.12518310546875,0)" style="transform:matrix(1, 0, 0, 1, -329.125, 0);animation-play-state:paused" ></path>
<path d="M 0 412.35 C 219 412.35 438 407.65 657 407.65 C 876 407.65 1095 412.35 1314 412.35 C 1533 412.35 1752 407.65 1971 407.65 C 2190 407.65 2409 412.35 2628 412.35" fill="none" stroke="rgb(32, 120, 195)" stroke-opacity="0.06818181818181818" stroke-width="2" transform="matrix(1,0,0,1,-336.1280212402344,0)" style="transform:matrix(1, 0, 0, 1, -336.128, 0);animation-play-state:paused" ></path>
<path d="M 0 414.432 C 219 414.432 438 405.568 657 405.568 C 876 405.568 1095 414.432 1314 414.432 C 1533 414.432 1752 405.568 1971 405.568 C 2190 405.568 2409 414.432 2628 414.432" fill="none" stroke="rgb(33, 121, 196)" stroke-opacity="0.09090909090909091" stroke-width="2" transform="matrix(1,0,0,1,-343.130615234375,0)" style="transform:matrix(1, 0, 0, 1, -343.131, 0);animation-play-state:paused" ></path>
<path d="M 0 416.499 C 219 416.499 438 403.501 657 403.501 C 876 403.501 1095 416.499 1314 416.499 C 1533 416.499 1752 403.501 1971 403.501 C 2190 403.501 2409 416.499 2628 416.499" fill="none" stroke="rgb(35, 122, 197)" stroke-opacity="0.11363636363636363" stroke-width="2" transform="matrix(1,0,0,1,-350.1332092285156,0)" style="transform:matrix(1, 0, 0, 1, -350.133, 0);animation-play-state:paused" ></path>
<path d="M 0 418.546 C 219 418.546 438 401.454 657 401.454 C 876 401.454 1095 418.546 1314 418.546 C 1533 418.546 1752 401.454 1971 401.454 C 2190 401.454 2409 418.546 2628 418.546" fill="none" stroke="rgb(36, 123, 198)" stroke-opacity="0.13636363636363635" stroke-width="2" transform="matrix(1,0,0,1,-357.1360168457031,0)" style="transform:matrix(1, 0, 0, 1, -357.136, 0);animation-play-state:paused" ></path>
<path d="M 0 420.566 C 219 420.566 438 399.434 657 399.434 C 876 399.434 1095 420.566 1314 420.566 C 1533 420.566 1752 399.434 1971 399.434 C 2190 399.434 2409 420.566 2628 420.566" fill="none" stroke="rgb(38, 124, 200)" stroke-opacity="0.1590909090909091" stroke-width="2" transform="matrix(1,0,0,1,-364.13861083984375,0)" style="transform:matrix(1, 0, 0, 1, -364.139, 0);animation-play-state:paused" ></path>
<path d="M 0 422.554 C 219 422.554 438 397.446 657 397.446 C 876 397.446 1095 422.554 1314 422.554 C 1533 422.554 1752 397.446 1971 397.446 C 2190 397.446 2409 422.554 2628 422.554" fill="none" stroke="rgb(39, 125, 201)" stroke-opacity="0.18181818181818182" stroke-width="2" transform="matrix(1,0,0,1,-371.1412048339844,0)" style="transform:matrix(1, 0, 0, 1, -371.141, 0);animation-play-state:paused" ></path>
<path d="M 0 424.504 C 219 424.504 438 395.496 657 395.496 C 876 395.496 1095 424.504 1314 424.504 C 1533 424.504 1752 395.496 1971 395.496 C 2190 395.496 2409 424.504 2628 424.504" fill="none" stroke="rgb(41, 127, 203)" stroke-opacity="0.20454545454545456" stroke-width="2" transform="matrix(1,0,0,1,-378.14398193359375,0)" style="transform:matrix(1, 0, 0, 1, -378.144, 0);animation-play-state:paused" ></path>
<path d="M 0 426.412 C 219 426.412 438 393.588 657 393.588 C 876 393.588 1095 426.412 1314 426.412 C 1533 426.412 1752 393.588 1971 393.588 C 2190 393.588 2409 426.412 2628 426.412" fill="none" stroke="rgb(43, 128, 205)" stroke-opacity="0.22727272727272727" stroke-width="2" transform="matrix(1,0,0,1,-385.1466064453125,0)" style="transform:matrix(1, 0, 0, 1, -385.147, 0);animation-play-state:paused" ></path>
<path d="M 0 428.273 C 219 428.273 438 391.727 657 391.727 C 876 391.727 1095 428.273 1314 428.273 C 1533 428.273 1752 391.727 1971 391.727 C 2190 391.727 2409 428.273 2628 428.273" fill="none" stroke="rgb(45, 129, 207)" stroke-opacity="0.25" stroke-width="2" transform="matrix(1,0,0,1,-392.1492004394531,0)" style="transform:matrix(1, 0, 0, 1, -392.149, 0);animation-play-state:paused" ></path>
<path d="M 0 430.085 C 219 430.085 438 389.915 657 389.915 C 876 389.915 1095 430.085 1314 430.085 C 1533 430.085 1752 389.915 1971 389.915 C 2190 389.915 2409 430.085 2628 430.085" fill="none" stroke="rgb(47, 130, 208)" stroke-opacity="0.2727272727272727" stroke-width="2" transform="matrix(1,0,0,1,-399.1519775390625,0)" style="transform:matrix(1, 0, 0, 1, -399.152, 0);animation-play-state:paused" ></path>
<path d="M 0 431.843 C 219 431.843 438 388.157 657 388.157 C 876 388.157 1095 431.843 1314 431.843 C 1533 431.843 1752 388.157 1971 388.157 C 2190 388.157 2409 431.843 2628 431.843" fill="none" stroke="rgb(49, 132, 210)" stroke-opacity="0.29545454545454547" stroke-width="2" transform="matrix(1,0,0,1,-406.15460205078125,0)" style="transform:matrix(1, 0, 0, 1, -406.155, 0);animation-play-state:paused" ></path>
<path d="M 0 433.546 C 219 433.546 438 386.454 657 386.454 C 876 386.454 1095 433.546 1314 433.546 C 1533 433.546 1752 386.454 1971 386.454 C 2190 386.454 2409 433.546 2628 433.546" fill="none" stroke="rgb(51, 133, 212)" stroke-opacity="0.3181818181818182" stroke-width="2" transform="matrix(1,0,0,1,-413.1571960449219,0)" style="transform:matrix(1, 0, 0, 1, -413.157, 0);animation-play-state:paused" ></path>
<path d="M 0 435.191 C 219 435.191 438 384.809 657 384.809 C 876 384.809 1095 435.191 1314 435.191 C 1533 435.191 1752 384.809 1971 384.809 C 2190 384.809 2409 435.191 2628 435.191" fill="none" stroke="rgb(53, 134, 213)" stroke-opacity="0.3409090909090909" stroke-width="2" transform="matrix(1,0,0,1,-420.1600036621094,0)" style="transform:matrix(1, 0, 0, 1, -420.16, 0);animation-play-state:paused" ></path>
<path d="M 0 436.777 C 219 436.777 438 383.223 657 383.223 C 876 383.223 1095 436.777 1314 436.777 C 1533 436.777 1752 383.223 1971 383.223 C 2190 383.223 2409 436.777 2628 436.777" fill="none" stroke="rgb(54, 135, 215)" stroke-opacity="0.36363636363636365" stroke-width="2" transform="matrix(1,0,0,1,-427.1625671386719,0)" style="transform:matrix(1, 0, 0, 1, -427.163, 0);animation-play-state:paused" ></path>
<path d="M 0 438.302 C 219 438.302 438 381.698 657 381.698 C 876 381.698 1095 438.302 1314 438.302 C 1533 438.302 1752 381.698 1971 381.698 C 2190 381.698 2409 438.302 2628 438.302" fill="none" stroke="rgb(56, 136, 216)" stroke-opacity="0.38636363636363635" stroke-width="2" transform="matrix(1,0,0,1,-434.16522216796875,0)" style="transform:matrix(1, 0, 0, 1, -434.165, 0);animation-play-state:paused" ></path>
<path d="M 0 439.766 C 219 439.766 438 380.234 657 380.234 C 876 380.234 1095 439.766 1314 439.766 C 1533 439.766 1752 380.234 1971 380.234 C 2190 380.234 2409 439.766 2628 439.766" fill="none" stroke="rgb(57, 137, 218)" stroke-opacity="0.4090909090909091" stroke-width="2" transform="matrix(1,0,0,1,-441.1679992675781,0)" style="transform:matrix(1, 0, 0, 1, -441.168, 0);animation-play-state:paused" ></path>
<path d="M 0 441.169 C 219 441.169 438 378.831 657 378.831 C 876 378.831 1095 441.169 1314 441.169 C 1533 441.169 1752 378.831 1971 378.831 C 2190 378.831 2409 441.169 2628 441.169" fill="none" stroke="rgb(58, 138, 219)" stroke-opacity="0.4318181818181818" stroke-width="2" transform="matrix(1,0,0,1,-448.17059326171875,0)" style="transform:matrix(1, 0, 0, 1, -448.171, 0);animation-play-state:paused" ></path>
<path d="M 0 442.51 C 219 442.51 438 377.49 657 377.49 C 876 377.49 1095 442.51 1314 442.51 C 1533 442.51 1752 377.49 1971 377.49 C 2190 377.49 2409 442.51 2628 442.51" fill="none" stroke="rgb(59, 139, 220)" stroke-opacity="0.45454545454545453" stroke-width="2" transform="matrix(1,0,0,1,-455.1732177734375,0)" style="transform:matrix(1, 0, 0, 1, -455.173, 0);animation-play-state:paused" ></path>
<path d="M 0 443.79 C 219 443.79 438 376.21 657 376.21 C 876 376.21 1095 443.79 1314 443.79 C 1533 443.79 1752 376.21 1971 376.21 C 2190 376.21 2409 443.79 2628 443.79" fill="none" stroke="rgb(60, 140, 221)" stroke-opacity="0.4772727272727273" stroke-width="2" transform="matrix(1,0,0,1,-462.1759948730469,0)" style="transform:matrix(1, 0, 0, 1, -462.176, 0);animation-play-state:paused" ></path>
<path d="M 0 445.009 C 219 445.009 438 374.991 657 374.991 C 876 374.991 1095 445.009 1314 445.009 C 1533 445.009 1752 374.991 1971 374.991 C 2190 374.991 2409 445.009 2628 445.009" fill="none" stroke="rgb(61, 140, 221)" stroke-opacity="0.5" stroke-width="2" transform="matrix(1,0,0,1,-469.1785888671875,0)" style="transform:matrix(1, 0, 0, 1, -469.179, 0);animation-play-state:paused" ></path>
<path d="M 0 446.168 C 219 446.168 438 373.832 657 373.832 C 876 373.832 1095 446.168 1314 446.168 C 1533 446.168 1752 373.832 1971 373.832 C 2190 373.832 2409 446.168 2628 446.168" fill="none" stroke="rgb(62, 141, 222)" stroke-opacity="0.5227272727272727" stroke-width="2" transform="matrix(1,0,0,1,-476.1811828613281,0)" style="transform:matrix(1, 0, 0, 1, -476.181, 0);animation-play-state:paused" ></path>
<path d="M 0 447.268 C 219 447.268 438 372.732 657 372.732 C 876 372.732 1095 447.268 1314 447.268 C 1533 447.268 1752 372.732 1971 372.732 C 2190 372.732 2409 447.268 2628 447.268" fill="none" stroke="rgb(63, 141, 223)" stroke-opacity="0.5454545454545454" stroke-width="2" transform="matrix(1,0,0,1,-483.1839904785156,0)" style="transform:matrix(1, 0, 0, 1, -483.184, 0);animation-play-state:paused" ></path>
<path d="M 0 448.309 C 219 448.309 438 371.691 657 371.691 C 876 371.691 1095 448.309 1314 448.309 C 1533 448.309 1752 371.691 1971 371.691 C 2190 371.691 2409 448.309 2628 448.309" fill="none" stroke="rgb(63, 141, 223)" stroke-opacity="0.5681818181818182" stroke-width="2" transform="matrix(1,0,0,1,-490.18658447265625,0)" style="transform:matrix(1, 0, 0, 1, -490.187, 0);animation-play-state:paused" ></path>
<path d="M 0 449.293 C 219 449.293 438 370.707 657 370.707 C 876 370.707 1095 449.293 1314 449.293 C 1533 449.293 1752 370.707 1971 370.707 C 2190 370.707 2409 449.293 2628 449.293" fill="none" stroke="rgb(63, 142, 223)" stroke-opacity="0.5909090909090909" stroke-width="2" transform="matrix(1,0,0,1,-497.1891784667969,0)" style="transform:matrix(1, 0, 0, 1, -497.189, 0);animation-play-state:paused" ></path>
<path d="M 0 450.221 C 219 450.221 438 369.779 657 369.779 C 876 369.779 1095 450.221 1314 450.221 C 1533 450.221 1752 369.779 1971 369.779 C 2190 369.779 2409 450.221 2628 450.221" fill="none" stroke="rgb(64, 142, 224)" stroke-opacity="0.6136363636363636" stroke-width="2" transform="matrix(1,0,0,1,-504.1920166015625,0)" style="transform:matrix(1, 0, 0, 1, -504.192, 0);animation-play-state:paused" ></path>
<path d="M 0 451.093 C 219 451.093 438 368.907 657 368.907 C 876 368.907 1095 451.093 1314 451.093 C 1533 451.093 1752 368.907 1971 368.907 C 2190 368.907 2409 451.093 2628 451.093" fill="none" stroke="rgb(64, 142, 224)" stroke-opacity="0.6363636363636364" stroke-width="2" transform="matrix(1,0,0,1,-511.194580078125,0)" style="transform:matrix(1, 0, 0, 1, -511.195, 0);animation-play-state:paused" ></path>
<path d="M 0 451.913 C 219 451.913 438 368.087 657 368.087 C 876 368.087 1095 451.913 1314 451.913 C 1533 451.913 1752 368.087 1971 368.087 C 2190 368.087 2409 451.913 2628 451.913" fill="none" stroke="rgb(64, 142, 224)" stroke-opacity="0.6590909090909091" stroke-width="2" transform="matrix(1,0,0,1,-518.1972045898438,0)" style="transform:matrix(1, 0, 0, 1, -518.197, 0);animation-play-state:paused" ></path></g></svg>